<svg xmlns="http://www.w3.org/2000/svg" xmlns:xlink="http://www.w3.org/1999/xlink" width="900" zoomAndPan="magnify" viewBox="0 0 675 353.249998" height="471" preserveAspectRatio="xMidYMid meet" version="1.0"><defs><clipPath id="7c2fd3785c"><path d="M 100.878906 6.40625 L 263 6.40625 L 263 154 L 100.878906 154 Z M 100.878906 6.40625 " clip-rule="nonzero"/></clipPath></defs><path fill="#ffffff" d="M 20.078125 91.988281 C 20.078125 93.230469 19.792969 94.34375 19.226562 95.328125 C 18.660156 96.304688 17.847656 97.0625 16.789062 97.59375 C 15.734375 98.128906 14.480469 98.394531 13.023438 98.394531 L 8.222656 98.394531 L 8.222656 105.207031 L 4.171875 105.207031 L 4.171875 85.859375 L 12.859375 85.859375 C 15.175781 85.859375 16.957031 86.394531 18.207031 87.460938 C 19.453125 88.53125 20.078125 90.039062 20.078125 91.988281 Z M 16.003906 92.050781 C 16.003906 90.019531 14.804688 89.003906 12.410156 89.003906 L 8.222656 89.003906 L 8.222656 95.285156 L 12.515625 95.285156 C 13.632812 95.285156 14.492188 95.007812 15.097656 94.453125 C 15.699219 93.898438 16.003906 93.097656 16.003906 92.050781 Z M 16.003906 92.050781 " fill-opacity="1" fill-rule="nonzero"/><path fill="#ffffff" d="M 34.503906 105.207031 L 32.789062 100.269531 L 25.421875 100.269531 L 23.707031 105.207031 L 19.652344 105.207031 L 26.707031 85.859375 L 31.488281 85.859375 L 38.511719 105.207031 Z M 29.101562 88.839844 L 29.015625 89.140625 C 28.925781 89.46875 28.816406 89.847656 28.6875 90.269531 C 28.558594 90.691406 27.773438 93.007812 26.328125 97.214844 L 31.882812 97.214844 L 29.972656 91.660156 L 29.386719 89.785156 Z M 29.101562 88.839844 " fill-opacity="1" fill-rule="nonzero"/><path fill="#ffffff" d="M 58.378906 95.390625 C 58.378906 97.390625 57.984375 99.128906 57.199219 100.617188 C 56.414062 102.105469 55.308594 103.242188 53.875 104.027344 C 52.445312 104.816406 50.804688 105.207031 48.957031 105.207031 L 41.132812 105.207031 L 41.132812 85.859375 L 48.136719 85.859375 C 51.394531 85.859375 53.914062 86.683594 55.699219 88.328125 C 57.484375 89.972656 58.378906 92.328125 58.378906 95.390625 Z M 54.296875 95.390625 C 54.296875 93.3125 53.753906 91.726562 52.675781 90.636719 C 51.597656 89.539062 50.054688 88.992188 48.050781 88.992188 L 45.1875 88.992188 L 45.1875 102.078125 L 48.617188 102.078125 C 50.355469 102.078125 51.734375 101.480469 52.761719 100.28125 C 53.785156 99.082031 54.296875 97.449219 54.296875 95.390625 Z M 54.296875 95.390625 " fill-opacity="1" fill-rule="nonzero"/><path fill="#ffffff" d="M 61.433594 105.207031 L 61.433594 85.859375 L 76.648438 85.859375 L 76.648438 88.992188 L 65.488281 88.992188 L 65.488281 93.855469 L 75.804688 93.855469 L 75.804688 96.984375 L 65.488281 96.984375 L 65.488281 102.078125 L 77.207031 102.078125 L 77.207031 105.207031 Z M 61.433594 105.207031 " fill-opacity="1" fill-rule="nonzero"/><path fill="#ffffff" d="M 80.195312 105.207031 L 80.195312 85.859375 L 84.246094 85.859375 L 84.246094 102.078125 L 94.625 102.078125 L 94.625 105.207031 Z M 80.195312 105.207031 " fill-opacity="1" fill-rule="nonzero"/><path fill="#ffffff" d="M 161.0625 173.527344 L 161.0625 189.742188 L 157.007812 189.742188 L 157.007812 173.527344 L 150.761719 173.527344 L 150.761719 170.394531 L 167.320312 170.394531 L 167.320312 173.527344 Z M 161.0625 173.527344 " fill-opacity="1" fill-rule="nonzero"/><path fill="#ffffff" d="M 169.5 189.742188 L 169.5 170.394531 L 184.714844 170.394531 L 184.714844 173.527344 L 173.550781 173.527344 L 173.550781 178.386719 L 183.871094 178.386719 L 183.871094 181.519531 L 173.550781 181.519531 L 173.550781 186.609375 L 185.269531 186.609375 L 185.269531 189.742188 Z M 169.5 189.742188 " fill-opacity="1" fill-rule="nonzero"/><path fill="#ffffff" d="M 201.917969 189.742188 L 200.203125 184.800781 L 192.835938 184.800781 L 191.121094 189.742188 L 187.070312 189.742188 L 194.125 170.394531 L 198.902344 170.394531 L 205.929688 189.742188 Z M 196.515625 173.375 L 196.429688 173.675781 C 196.339844 174.003906 196.230469 174.382812 196.101562 174.804688 C 195.972656 175.226562 195.1875 177.539062 193.746094 181.75 L 199.296875 181.75 L 197.390625 176.191406 L 196.804688 174.320312 Z M 196.515625 173.375 " fill-opacity="1" fill-rule="nonzero"/><path fill="#ffffff" d="M 224.613281 189.742188 L 224.613281 178.015625 C 224.613281 177.75 224.617188 177.484375 224.621094 177.222656 C 224.625 176.957031 224.667969 175.8125 224.75 173.796875 C 224.097656 176.261719 223.617188 177.980469 223.304688 178.953125 L 219.820312 189.742188 L 216.9375 189.742188 L 213.453125 178.953125 L 211.980469 173.796875 C 212.089844 175.925781 212.144531 177.328125 212.144531 178.015625 L 212.144531 189.742188 L 208.550781 189.742188 L 208.550781 170.394531 L 213.972656 170.394531 L 217.433594 181.210938 L 217.734375 182.257812 L 218.390625 184.851562 L 219.253906 181.75 L 222.8125 170.394531 L 228.207031 170.394531 L 228.207031 189.742188 Z M 224.613281 189.742188 " fill-opacity="1" fill-rule="nonzero"/><path fill="#ffffff" d="M 274.605469 102.3125 C 275.660156 102.3125 276.679688 102.160156 277.664062 101.855469 C 278.652344 101.546875 279.417969 101.152344 279.957031 100.675781 L 279.957031 98 L 275.242188 98 L 275.242188 95.003906 L 283.667969 95.003906 L 283.667969 102.121094 C 282.640625 103.175781 281.308594 104 279.664062 104.59375 C 278.023438 105.183594 276.300781 105.480469 274.5 105.480469 C 271.347656 105.480469 268.925781 104.613281 267.230469 102.871094 C 265.539062 101.125 264.695312 98.652344 264.695312 95.449219 C 264.695312 92.257812 265.542969 89.816406 267.246094 88.121094 C 268.949219 86.421875 271.398438 85.574219 274.589844 85.574219 C 279.132812 85.574219 282.019531 87.253906 283.253906 90.613281 L 279.523438 91.738281 C 279.117188 90.761719 278.484375 90.019531 277.621094 89.511719 C 276.765625 89.007812 275.753906 88.753906 274.589844 88.753906 C 272.691406 88.753906 271.242188 89.332031 270.253906 90.484375 C 269.269531 91.640625 268.773438 93.292969 268.773438 95.449219 C 268.773438 97.636719 269.285156 99.328125 270.304688 100.523438 C 271.324219 101.71875 272.757812 102.3125 274.605469 102.3125 Z M 274.605469 102.3125 " fill-opacity="1" fill-rule="nonzero"/><path fill="#ffffff" d="M 306.097656 95.449219 C 306.097656 97.460938 305.699219 99.230469 304.902344 100.761719 C 304.105469 102.289062 302.96875 103.453125 301.480469 104.265625 C 300 105.078125 298.269531 105.480469 296.292969 105.480469 C 293.257812 105.480469 290.875 104.585938 289.148438 102.800781 C 287.421875 101.011719 286.558594 98.5625 286.558594 95.449219 C 286.558594 92.34375 287.417969 89.925781 289.140625 88.183594 C 290.863281 86.445312 293.257812 85.574219 296.320312 85.574219 C 299.390625 85.574219 301.785156 86.453125 303.511719 88.210938 C 305.234375 89.96875 306.097656 92.378906 306.097656 95.449219 Z M 301.96875 95.449219 C 301.96875 93.359375 301.46875 91.722656 300.480469 90.535156 C 299.496094 89.347656 298.109375 88.753906 296.320312 88.753906 C 294.511719 88.753906 293.109375 89.34375 292.121094 90.523438 C 291.132812 91.699219 290.640625 93.34375 290.640625 95.449219 C 290.640625 97.570312 291.144531 99.242188 292.15625 100.46875 C 293.164062 101.6875 294.542969 102.296875 296.292969 102.296875 C 298.109375 102.296875 299.503906 101.703125 300.488281 100.519531 C 301.472656 99.328125 301.96875 97.636719 301.96875 95.449219 Z M 301.96875 95.449219 " fill-opacity="1" fill-rule="nonzero"/><path fill="#ffffff" d="M 317.199219 105.480469 C 314.535156 105.480469 312.5 104.832031 311.082031 103.535156 C 309.667969 102.234375 308.960938 100.375 308.960938 97.957031 L 308.960938 85.859375 L 313.011719 85.859375 L 313.011719 97.644531 C 313.011719 99.171875 313.375 100.335938 314.097656 101.125 C 314.828125 101.917969 315.898438 102.3125 317.308594 102.3125 C 318.753906 102.3125 319.867188 101.898438 320.644531 101.070312 C 321.421875 100.238281 321.808594 99.050781 321.808594 97.507812 L 321.808594 85.859375 L 325.863281 85.859375 L 325.863281 97.75 C 325.863281 100.207031 325.105469 102.109375 323.589844 103.457031 C 322.074219 104.804688 319.945312 105.480469 317.199219 105.480469 Z M 317.199219 105.480469 " fill-opacity="1" fill-rule="nonzero"/><path fill="#ffffff" d="M 342.746094 105.207031 L 338.25 97.863281 L 333.507812 97.863281 L 333.507812 105.207031 L 329.453125 105.207031 L 329.453125 85.859375 L 339.117188 85.859375 C 341.425781 85.859375 343.207031 86.359375 344.460938 87.355469 C 345.714844 88.347656 346.339844 89.769531 346.339844 91.628906 C 346.339844 92.984375 345.957031 94.152344 345.183594 95.140625 C 344.414062 96.125 343.378906 96.769531 342.066406 97.078125 L 347.300781 105.207031 Z M 342.261719 91.792969 C 342.261719 89.933594 341.070312 89.003906 338.695312 89.003906 L 333.507812 89.003906 L 333.507812 94.71875 L 338.800781 94.71875 C 339.933594 94.71875 340.796875 94.464844 341.382812 93.953125 C 341.96875 93.4375 342.261719 92.71875 342.261719 91.792969 Z M 342.261719 91.792969 " fill-opacity="1" fill-rule="nonzero"/><path fill="#ffffff" d="M 365.820312 105.207031 L 365.820312 93.480469 C 365.820312 93.214844 365.820312 92.949219 365.828125 92.6875 C 365.832031 92.421875 365.875 91.28125 365.957031 89.261719 C 365.300781 91.726562 364.820312 93.445312 364.511719 94.417969 L 361.023438 105.207031 L 358.144531 105.207031 L 354.65625 94.417969 L 353.1875 89.261719 C 353.292969 91.390625 353.351562 92.796875 353.351562 93.480469 L 353.351562 105.207031 L 349.753906 105.207031 L 349.753906 85.859375 L 355.179688 85.859375 L 358.636719 96.679688 L 358.9375 97.722656 L 359.597656 100.316406 L 360.460938 97.214844 L 364.019531 85.859375 L 369.414062 85.859375 L 369.414062 105.207031 Z M 365.820312 105.207031 " fill-opacity="1" fill-rule="nonzero"/><path fill="#ffffff" d="M 373.171875 105.207031 L 373.171875 85.859375 L 388.386719 85.859375 L 388.386719 88.992188 L 377.222656 88.992188 L 377.222656 93.855469 L 387.542969 93.855469 L 387.542969 96.984375 L 377.222656 96.984375 L 377.222656 102.078125 L 388.945312 102.078125 L 388.945312 105.207031 Z M 373.171875 105.207031 " fill-opacity="1" fill-rule="nonzero"/><path fill="#ffffff" d="M 400.65625 88.992188 L 400.65625 105.207031 L 396.601562 105.207031 L 396.601562 88.992188 L 390.355469 88.992188 L 390.355469 85.859375 L 406.914062 85.859375 L 406.914062 88.992188 Z M 400.65625 88.992188 " fill-opacity="1" fill-rule="nonzero"/><g clip-path="url(#7c2fd3785c)"><path fill="#ffffff" d="M 153.917969 6.40625 C 175.8125 6.558594 193.386719 19.175781 201.5 39.34375 C 207.507812 54.261719 210.648438 69.894531 214.78125 85.292969 C 216.277344 90.863281 217.753906 96.429688 219.671875 101.878906 C 221.257812 106.386719 223.019531 110.21875 227.363281 113.375 C 236.34375 119.910156 244.46875 127.617188 252.992188 134.789062 C 255.019531 136.496094 256.761719 138.371094 259.824219 138.855469 C 262.292969 139.25 264.023438 141.449219 262.148438 144.539062 C 260.21875 147.710938 258.0625 150.640625 255.046875 152.84375 C 252.324219 154.839844 249.613281 154.148438 248.714844 150.882812 C 248.28125 149.3125 247.503906 148.40625 246.402344 147.46875 C 238.628906 140.835938 230.171875 134.828125 223.285156 127.375 C 215.335938 118.777344 205.46875 117.238281 194.925781 116.144531 C 177.59375 114.347656 160.109375 113.917969 142.992188 110.148438 C 124.800781 106.140625 111.683594 96.109375 104.679688 78.605469 C 90.839844 44.007812 116.667969 6.152344 153.917969 6.40625 Z M 209.167969 111.367188 C 213.757812 111.472656 214.289062 110.597656 213.488281 105.386719 C 213.195312 103.476562 212.097656 102.085938 211.574219 100.363281 C 208.734375 91.023438 206.460938 81.539062 204.019531 72.09375 C 203.714844 70.929688 204.066406 69.023438 202.171875 69.199219 C 200.417969 69.355469 200.867188 71.15625 200.652344 72.382812 C 198.578125 84.355469 194.007812 94.707031 182.253906 100.25 C 179.429688 101.585938 176.429688 102.542969 173.542969 103.746094 C 172.613281 104.132812 171.199219 104.390625 171.199219 105.570312 C 171.199219 107.164062 172.804688 106.347656 173.648438 106.722656 C 176.515625 107.992188 179.601562 107.289062 182.578125 107.75 C 191.203125 109.089844 199.871094 110.128906 209.167969 111.367188 Z M 157.660156 92.09375 C 157.773438 93.65625 158.769531 94.597656 160.167969 94.558594 C 161.734375 94.515625 162.914062 93.46875 162.746094 91.757812 C 162.605469 90.3125 161.550781 89.433594 160.035156 89.539062 C 158.53125 89.640625 157.703125 90.546875 157.660156 92.09375 Z M 138.304688 59.777344 C 138.203125 58.226562 137.207031 57.242188 135.835938 57.191406 C 134.234375 57.132812 133.078125 58.203125 133.136719 59.902344 C 133.191406 61.421875 134.28125 62.28125 135.769531 62.253906 C 137.261719 62.222656 138.15625 61.324219 138.304688 59.773438 Z M 187.84375 44.664062 C 186.308594 44.707031 185.34375 45.546875 185.203125 46.988281 C 185.0625 48.449219 185.910156 49.527344 187.386719 49.699219 C 189.09375 49.902344 190.144531 48.871094 190.25 47.25 C 190.347656 45.726562 189.230469 44.984375 187.84375 44.664062 Z M 159.605469 66.023438 C 157.867188 66.109375 156.882812 66.882812 156.871094 68.402344 C 156.863281 69.832031 157.652344 70.9375 159.191406 70.980469 C 160.832031 71.027344 161.925781 70.171875 161.882812 68.410156 C 161.847656 66.863281 160.832031 66.171875 159.605469 66.023438 Z M 149.554688 28.351562 C 149.917969 29.65625 150.714844 30.75 152.199219 30.683594 C 153.828125 30.605469 154.90625 29.539062 154.691406 27.835938 C 154.511719 26.421875 153.503906 25.464844 151.972656 25.640625 C 150.527344 25.808594 149.707031 26.777344 149.554688 28.351562 Z M 134.691406 38.769531 C 136.230469 38.738281 137.296875 38.007812 137.449219 36.550781 C 137.628906 34.851562 136.554688 33.867188 134.925781 33.800781 C 133.425781 33.738281 132.472656 34.667969 132.429688 36.167969 C 132.390625 37.644531 133.25 38.535156 134.695312 38.769531 Z M 139.109375 83.058594 C 138.882812 81.945312 138.234375 80.898438 136.707031 80.800781 C 134.957031 80.679688 134.015625 81.699219 134.019531 83.351562 C 134.019531 84.855469 135.089844 85.746094 136.523438 85.734375 C 137.933594 85.71875 138.9375 84.910156 139.109375 83.0625 Z M 156.390625 75.292969 C 156.148438 73.902344 155.546875 72.769531 153.976562 72.6875 C 152.285156 72.597656 151.167969 73.4375 151.207031 75.191406 C 151.238281 76.6875 152.214844 77.589844 153.726562 77.601562 C 155.199219 77.609375 156.132812 76.804688 156.390625 75.292969 Z M 137.78125 47.847656 C 137.652344 46.359375 136.792969 45.515625 135.28125 45.546875 C 133.808594 45.578125 132.824219 46.335938 132.855469 47.9375 C 132.890625 49.625 133.816406 50.648438 135.519531 50.503906 C 136.957031 50.382812 137.820312 49.457031 137.78125 47.847656 Z M 175.363281 27.6875 C 176.871094 27.453125 177.847656 26.621094 177.804688 25.148438 C 177.757812 23.433594 176.585938 22.648438 174.9375 22.804688 C 173.433594 22.945312 172.582031 23.9375 172.753906 25.425781 C 172.921875 26.863281 173.933594 27.621094 175.367188 27.6875 Z M 131.800781 42.867188 C 131.632812 41.390625 130.835938 40.449219 129.300781 40.421875 C 127.75 40.394531 126.859375 41.296875 126.820312 42.839844 C 126.78125 44.433594 127.785156 45.292969 129.261719 45.289062 C 130.703125 45.289062 131.710938 44.503906 131.804688 42.867188 Z M 159.863281 82.785156 C 161.289062 82.449219 162.367188 81.824219 162.25 80.171875 C 162.136719 78.605469 161.183594 77.765625 159.679688 77.839844 C 158.1875 77.914062 157.234375 78.820312 157.304688 80.394531 C 157.375 81.96875 158.433594 82.636719 159.863281 82.78125 Z M 155.597656 51.542969 C 155.363281 50.328125 154.675781 49.285156 153.179688 49.191406 C 151.488281 49.078125 150.453125 50.03125 150.449219 51.703125 C 150.441406 53.222656 151.503906 54.042969 152.964844 54.054688 C 154.417969 54.0625 155.339844 53.25 155.597656 51.542969 Z M 136.035156 73.992188 C 137.714844 73.75 138.664062 72.960938 138.566406 71.371094 C 138.472656 69.8125 137.417969 68.929688 135.96875 69.035156 C 134.585938 69.136719 133.496094 69.992188 133.617188 71.621094 C 133.730469 73.167969 134.722656 73.878906 136.03125 73.988281 Z M 176.484375 62.925781 C 177.996094 62.8125 179.023438 61.949219 179.027344 60.511719 C 179.027344 58.90625 177.988281 57.839844 176.28125 57.945312 C 174.796875 58.035156 173.886719 59 173.976562 60.503906 C 174.058594 61.964844 174.972656 62.824219 176.488281 62.925781 Z M 141.011719 50.640625 C 139.765625 50.890625 138.796875 51.703125 138.859375 53.226562 C 138.925781 54.738281 139.875 55.636719 141.433594 55.546875 C 142.933594 55.460938 143.886719 54.625 143.792969 53.023438 C 143.699219 51.488281 142.78125 50.703125 141.011719 50.640625 Z M 149.945312 58.253906 C 149.6875 56.84375 148.921875 55.84375 147.371094 55.839844 C 145.847656 55.832031 144.84375 56.699219 144.84375 58.238281 C 144.84375 59.742188 145.769531 60.714844 147.316406 60.734375 C 148.855469 60.746094 149.644531 59.75 149.945312 58.253906 Z M 142.1875 74.179688 C 140.6875 74.261719 139.613281 74.929688 139.65625 76.539062 C 139.699219 77.992188 140.441406 79.097656 142.066406 79.078125 C 143.550781 79.0625 144.632812 78.324219 144.617188 76.710938 C 144.609375 75.199219 143.734375 74.316406 142.1875 74.175781 Z M 150.683594 81.636719 C 150.484375 80.300781 149.726562 79.261719 148.222656 79.277344 C 146.605469 79.292969 145.503906 80.15625 145.628906 81.9375 C 145.742188 83.492188 146.832031 84.238281 148.25 84.207031 C 149.710938 84.171875 150.59375 83.273438 150.683594 81.636719 Z M 133.417969 89.859375 C 133.292969 88.417969 132.535156 87.460938 131.015625 87.390625 C 129.53125 87.328125 128.460938 88.101562 128.351562 89.613281 C 128.234375 91.304688 129.25 92.316406 130.914062 92.347656 C 132.4375 92.382812 133.222656 91.390625 133.417969 89.859375 Z M 126.929688 72.832031 C 126.738281 71.476562 125.988281 70.488281 124.441406 70.496094 C 122.910156 70.5 121.980469 71.457031 121.976562 72.945312 C 121.96875 74.441406 122.898438 75.371094 124.441406 75.355469 C 125.941406 75.335938 126.84375 74.53125 126.929688 72.832031 Z M 171.984375 19.964844 C 171.753906 18.585938 171.007812 17.546875 169.445312 17.609375 C 167.964844 17.667969 166.9375 18.546875 166.960938 20.089844 C 166.984375 21.589844 167.867188 22.515625 169.464844 22.460938 C 170.996094 22.410156 171.890625 21.628906 171.984375 19.964844 Z M 160.429688 21.402344 C 160.105469 20.34375 159.652344 19.140625 158.058594 19.082031 C 156.367188 19.015625 155.308594 19.945312 155.328125 21.601562 C 155.34375 23.046875 156.316406 24.007812 157.8125 24 C 159.257812 23.992188 160.175781 23.15625 160.429688 21.402344 Z M 143.035156 29.472656 C 142.832031 28.128906 142.023438 27.179688 140.503906 27.1875 C 138.957031 27.199219 138.070312 28.234375 138.042969 29.6875 C 138.011719 31.230469 139.105469 32.09375 140.566406 32.074219 C 142.03125 32.054688 142.972656 31.199219 143.035156 29.472656 Z M 175.414062 34.394531 C 174.304688 34.777344 173.078125 35.25 173.160156 36.9375 C 173.234375 38.503906 174.191406 39.359375 175.683594 39.390625 C 177.230469 39.414062 178.164062 38.488281 178.136719 36.9375 C 178.109375 35.40625 177.125 34.609375 175.410156 34.394531 Z M 158.386719 42.597656 C 156.789062 42.683594 156.023438 43.6875 156.078125 45.128906 C 156.136719 46.605469 157.113281 47.488281 158.632812 47.503906 C 160.445312 47.527344 161.285156 46.304688 161.15625 44.75 C 161.039062 43.335938 159.921875 42.546875 158.382812 42.597656 Z M 149.449219 46.789062 C 149.421875 45.0625 148.566406 44.199219 147.03125 44.144531 C 145.511719 44.09375 144.445312 44.902344 144.464844 46.457031 C 144.476562 47.882812 145.28125 49.027344 146.878906 49.011719 C 148.324219 48.996094 149.339844 48.253906 149.449219 46.789062 Z M 178.625 48.75 C 178.460938 47.304688 177.738281 46.273438 176.242188 46.203125 C 174.550781 46.121094 173.527344 47.175781 173.535156 48.777344 C 173.539062 50.234375 174.605469 51.144531 176.078125 51.101562 C 177.496094 51.066406 178.480469 50.300781 178.625 48.75 Z M 182.09375 51.34375 C 180.542969 51.375 179.621094 52.226562 179.566406 53.710938 C 179.515625 55.167969 180.316406 56.207031 181.882812 56.257812 C 183.546875 56.308594 184.722656 55.445312 184.671875 53.746094 C 184.625 52.320312 183.621094 51.441406 182.09375 51.34375 Z M 190.621094 58.785156 C 190.449219 57.253906 189.488281 56.421875 188.046875 56.480469 C 186.621094 56.53125 185.589844 57.429688 185.609375 58.945312 C 185.628906 60.636719 186.675781 61.617188 188.351562 61.429688 C 189.753906 61.273438 190.65625 60.351562 190.625 58.789062 Z M 120.992188 67.863281 C 120.804688 66.289062 119.894531 65.472656 118.398438 65.453125 C 116.84375 65.433594 115.9375 66.328125 115.96875 67.871094 C 115.996094 69.398438 116.9375 70.328125 118.457031 70.308594 C 119.964844 70.289062 120.769531 69.300781 120.992188 67.863281 Z M 126.59375 61.210938 C 126.375 59.664062 125.535156 58.730469 124.015625 58.757812 C 122.511719 58.777344 121.5625 59.671875 121.582031 61.21875 C 121.601562 62.78125 122.554688 63.578125 124.101562 63.566406 C 125.660156 63.550781 126.457031 62.691406 126.59375 61.214844 Z M 163.910156 29.253906 C 165.027344 28.914062 166.3125 28.449219 166.320312 26.839844 C 166.328125 25.363281 165.460938 24.339844 163.9375 24.246094 C 162.394531 24.152344 161.445312 25.074219 161.351562 26.574219 C 161.25 28.121094 162.238281 28.917969 163.910156 29.253906 Z M 150.328125 70.167969 C 150.226562 68.722656 149.476562 67.636719 148.03125 67.523438 C 146.417969 67.394531 145.277344 68.257812 145.253906 70.023438 C 145.230469 71.605469 146.273438 72.414062 147.691406 72.492188 C 149.167969 72.578125 150.074219 71.691406 150.328125 70.167969 Z M 181.554688 27.898438 C 179.792969 27.867188 178.917969 28.789062 178.792969 30.21875 C 178.65625 31.777344 179.660156 32.5625 181.152344 32.6875 C 182.746094 32.816406 183.625 31.980469 183.683594 30.449219 C 183.742188 28.945312 182.914062 28.050781 181.550781 27.898438 Z M 169.792969 29.339844 C 168.355469 29.605469 167.351562 30.335938 167.410156 31.902344 C 167.464844 33.445312 168.425781 34.3125 169.925781 34.265625 C 171.425781 34.210938 172.3125 33.257812 172.296875 31.738281 C 172.277344 30.171875 171.292969 29.449219 169.792969 29.339844 Z M 160.785156 33.050781 C 160.433594 31.847656 159.71875 30.804688 158.160156 30.878906 C 156.667969 30.945312 155.699219 31.777344 155.761719 33.363281 C 155.824219 34.898438 156.730469 35.792969 158.269531 35.746094 C 159.796875 35.699219 160.566406 34.714844 160.789062 33.050781 Z M 187.761719 38.003906 C 188.832031 37.59375 189.917969 36.9375 189.769531 35.34375 C 189.628906 33.824219 188.671875 33.015625 187.152344 33.089844 C 185.605469 33.171875 184.777344 34.113281 184.90625 35.644531 C 185.03125 37.140625 185.996094 37.90625 187.761719 38.003906 Z M 137.007812 92.46875 C 135.523438 92.578125 134.507812 93.308594 134.460938 94.847656 C 134.417969 96.335938 135.214844 97.335938 136.792969 97.390625 C 138.328125 97.441406 139.273438 96.625 139.367188 95.082031 C 139.46875 93.488281 138.429688 92.789062 137.007812 92.46875 Z M 148.683594 90.980469 C 147.210938 91.09375 146.195312 91.832031 146.070312 93.339844 C 145.941406 94.898438 146.882812 95.8125 148.382812 95.890625 C 149.871094 95.96875 150.890625 95.160156 150.992188 93.617188 C 151.097656 92.066406 150.164062 91.253906 148.683594 90.984375 Z M 142.667969 85.9375 C 141.242188 86.023438 140.171875 86.570312 140.074219 88.207031 C 139.980469 89.804688 140.867188 90.671875 142.355469 90.800781 C 143.898438 90.941406 144.863281 90.003906 145.015625 88.546875 C 145.175781 87 144.175781 86.195312 142.667969 85.9375 Z M 156.660156 86.75 C 156.453125 85.132812 155.453125 84.386719 154 84.472656 C 152.496094 84.554688 151.636719 85.539062 151.71875 87.054688 C 151.8125 88.617188 152.894531 89.347656 154.351562 89.28125 C 155.882812 89.207031 156.585938 88.1875 156.660156 86.75 Z M 140.882812 38.933594 C 139.273438 39.136719 138.378906 39.964844 138.4375 41.519531 C 138.5 43.117188 139.585938 43.84375 141.058594 43.792969 C 142.582031 43.738281 143.472656 42.796875 143.394531 41.242188 C 143.3125 39.679688 142.3125 38.976562 140.882812 38.933594 Z M 184.1875 41.941406 C 183.871094 40.484375 183.03125 39.558594 181.53125 39.671875 C 180.078125 39.785156 179.148438 40.652344 179.289062 42.226562 C 179.425781 43.742188 180.351562 44.542969 181.863281 44.46875 C 183.414062 44.386719 184.078125 43.386719 184.1875 41.941406 Z M 132.503906 66.398438 C 132.417969 64.808594 131.667969 63.882812 130.0625 63.960938 C 128.59375 64.03125 127.550781 64.734375 127.597656 66.359375 C 127.636719 67.90625 128.59375 68.730469 130.082031 68.789062 C 131.695312 68.855469 132.390625 67.859375 132.5 66.398438 Z M 118.789062 82.128906 C 120.285156 81.910156 121.300781 81.15625 121.304688 79.605469 C 121.3125 78.046875 120.347656 77.164062 118.816406 77.1875 C 117.316406 77.207031 116.363281 78.023438 116.367188 79.636719 C 116.367188 81.242188 117.324219 81.953125 118.789062 82.128906 Z M 173.8125 78.871094 C 173.570312 77.40625 172.855469 76.347656 171.289062 76.367188 C 169.957031 76.390625 169.113281 77.203125 168.976562 78.566406 C 168.816406 80.167969 169.726562 81.113281 171.179688 81.238281 C 172.730469 81.375 173.460938 80.242188 173.8125 78.867188 Z M 132.960938 77.878906 C 132.78125 76.453125 131.886719 75.640625 130.367188 75.71875 C 128.835938 75.792969 127.933594 76.71875 128.039062 78.253906 C 128.140625 79.746094 129.097656 80.636719 130.632812 80.554688 C 132.152344 80.46875 132.964844 79.554688 132.964844 77.878906 Z M 182.222656 63.148438 C 180.859375 63.304688 179.921875 64.09375 180.023438 65.664062 C 180.121094 67.175781 181.070312 68.066406 182.605469 68 C 184.140625 67.933594 185.03125 66.960938 184.980469 65.457031 C 184.925781 63.921875 183.90625 63.183594 182.21875 63.148438 Z M 179.433594 72.070312 C 179.25 70.894531 178.652344 69.792969 177.121094 69.707031 C 175.449219 69.605469 174.414062 70.496094 174.363281 72.207031 C 174.316406 73.777344 175.316406 74.578125 176.78125 74.613281 C 178.257812 74.644531 179.148438 73.796875 179.433594 72.070312 Z M 141.792969 62.410156 C 140.308594 62.535156 139.320312 63.261719 139.265625 64.792969 C 139.210938 66.339844 140.132812 67.191406 141.636719 67.273438 C 143.203125 67.359375 144.085938 66.464844 144.160156 64.964844 C 144.242188 63.402344 143.191406 62.707031 141.792969 62.410156 Z M 161.488281 56.667969 C 161.261719 55.15625 160.363281 54.324219 158.855469 54.414062 C 157.363281 54.5 156.433594 55.378906 156.550781 56.949219 C 156.664062 58.476562 157.648438 59.320312 159.148438 59.242188 C 160.660156 59.160156 161.453125 58.214844 161.488281 56.667969 Z M 162.925781 73.628906 C 163.0625 75.011719 163.75 75.992188 165.296875 76.058594 C 166.84375 76.121094 167.765625 75.25 167.8125 73.757812 C 167.859375 72.300781 167.050781 71.269531 165.503906 71.242188 C 164.023438 71.210938 163.109375 72.011719 162.925781 73.628906 Z M 117.851562 58.5625 C 119.300781 58.527344 120.347656 57.855469 120.488281 56.335938 C 120.628906 54.820312 119.773438 53.859375 118.265625 53.710938 C 116.726562 53.5625 115.753906 54.417969 115.625 55.910156 C 115.5 57.371094 116.246094 58.359375 117.847656 58.566406 Z M 164.808594 52.574219 C 166.332031 52.386719 167.214844 51.578125 167.066406 49.984375 C 166.921875 48.449219 166.023438 47.597656 164.445312 47.746094 C 162.9375 47.894531 161.96875 48.804688 162.113281 50.339844 C 162.253906 51.8125 163.242188 52.628906 164.808594 52.574219 Z M 155.832031 63.101562 C 155.636719 61.71875 154.691406 60.933594 153.222656 60.992188 C 151.691406 61.050781 150.800781 62.089844 150.90625 63.535156 C 151.011719 64.957031 151.964844 65.933594 153.523438 65.78125 C 154.964844 65.636719 155.914062 64.871094 155.832031 63.101562 Z M 132.207031 54.53125 C 132.121094 53.167969 131.316406 52.265625 129.773438 52.222656 C 128.261719 52.183594 127.238281 52.90625 127.246094 54.53125 C 127.253906 56.035156 128.007812 57.042969 129.601562 57.0625 C 131.125 57.082031 132.03125 56.28125 132.203125 54.53125 Z M 167.535156 61.878906 C 167.332031 60.355469 166.488281 59.417969 164.988281 59.449219 C 163.5 59.480469 162.550781 60.417969 162.554688 61.933594 C 162.566406 63.492188 163.609375 64.28125 165.082031 64.289062 C 166.613281 64.300781 167.40625 63.367188 167.535156 61.878906 Z M 148.738281 22.902344 C 148.417969 21.582031 147.679688 20.574219 146.128906 20.621094 C 144.648438 20.664062 143.644531 21.441406 143.734375 23.046875 C 143.820312 24.523438 144.617188 25.492188 146.203125 25.460938 C 147.75 25.425781 148.46875 24.433594 148.738281 22.902344 Z M 170.761719 57.832031 C 172.082031 57.601562 173 56.765625 172.9375 55.234375 C 172.882812 53.949219 172.242188 52.980469 170.777344 52.933594 C 169.210938 52.875 168.226562 53.632812 168.210938 55.210938 C 168.199219 56.695312 169.019531 57.636719 170.761719 57.832031 Z M 147.046875 37.257812 C 148.09375 36.964844 149.144531 36.234375 149.003906 34.671875 C 148.878906 33.199219 147.957031 32.273438 146.402344 32.367188 C 144.871094 32.460938 143.972656 33.425781 144.078125 34.933594 C 144.183594 36.398438 145.113281 37.257812 147.046875 37.257812 Z M 166.804688 38.597656 C 166.699219 37.144531 165.914062 36.167969 164.457031 36.054688 C 163.015625 35.941406 161.929688 36.628906 161.820312 38.21875 C 161.71875 39.742188 162.445312 40.652344 164.042969 40.734375 C 165.554688 40.8125 166.464844 40.101562 166.808594 38.597656 Z M 152.550781 37.382812 C 151.125 37.71875 149.996094 38.382812 150.109375 39.96875 C 150.21875 41.425781 151.089844 42.421875 152.65625 42.34375 C 154.175781 42.269531 155.074219 41.269531 155.054688 39.800781 C 155.03125 38.289062 153.976562 37.542969 152.546875 37.382812 Z M 123.695312 47.042969 C 122.417969 47.1875 121.285156 47.664062 121.214844 49.292969 C 121.148438 50.839844 122.003906 51.738281 123.488281 51.851562 C 124.988281 51.96875 125.976562 51.136719 126.097656 49.65625 C 126.222656 48.125 125.261719 47.320312 123.695312 47.042969 Z M 127.386719 84.585938 C 127.078125 83.140625 126.234375 82.175781 124.734375 82.265625 C 123.257812 82.359375 122.367188 83.277344 122.441406 84.851562 C 122.515625 86.433594 123.441406 87.199219 124.988281 87.128906 C 126.554688 87.054688 127.234375 86.050781 127.390625 84.585938 Z M 172.59375 43.328125 C 172.457031 42.125 171.910156 41.085938 170.226562 41.132812 C 168.667969 41.175781 167.75 42 167.746094 43.519531 C 167.746094 45.015625 168.621094 45.902344 170.179688 45.957031 C 171.816406 46.019531 172.511719 45.105469 172.59375 43.332031 Z M 171.019531 64.613281 C 169.355469 64.730469 168.515625 65.625 168.535156 67.097656 C 168.554688 68.589844 169.546875 69.496094 170.992188 69.519531 C 172.53125 69.542969 173.265625 68.492188 173.273438 67.015625 C 173.28125 65.476562 172.449219 64.667969 171.019531 64.613281 Z M 168.242188 85.589844 C 168.179688 84.050781 167.445312 83.117188 165.875 82.992188 C 164.445312 82.875 163.597656 83.675781 163.4375 85 C 163.257812 86.480469 163.917969 87.621094 165.515625 87.78125 C 167.039062 87.929688 167.976562 87.128906 168.242188 85.589844 Z M 168.242188 85.589844 " fill-opacity="1" fill-rule="nonzero"/></g><path fill="#ffffff" d="M 209.167969 111.367188 C 199.863281 110.128906 191.195312 109.089844 182.574219 107.75 C 179.601562 107.289062 176.515625 107.992188 173.644531 106.722656 C 172.800781 106.347656 171.195312 107.164062 171.195312 105.570312 C 171.195312 104.390625 172.605469 104.132812 173.539062 103.746094 C 176.425781 102.542969 179.425781 101.585938 182.25 100.25 C 194.003906 94.707031 198.574219 84.351562 200.648438 72.382812 C 200.863281 71.15625 200.417969 69.355469 202.167969 69.199219 C 204.0625 69.023438 203.710938 70.929688 204.015625 72.09375 C 206.457031 81.539062 208.734375 91.023438 211.570312 100.363281 C 212.09375 102.089844 213.195312 103.476562 213.488281 105.386719 C 214.289062 110.597656 213.753906 111.472656 209.164062 111.367188 Z M 208.914062 109.085938 C 211.898438 109.140625 212.386719 107.457031 211.269531 105.269531 C 208.769531 100.375 206.421875 95.472656 205.003906 90.109375 C 204.3125 87.507812 201.621094 87.023438 200.265625 89.261719 C 197.722656 93.460938 194.539062 96.949219 190.972656 100.269531 C 188.503906 102.5625 189.457031 104.824219 192.996094 105.269531 C 197.691406 105.859375 202.292969 106.617188 206.636719 108.59375 C 207.332031 108.910156 208.160156 108.933594 208.914062 109.085938 Z M 208.914062 109.085938 " fill-opacity="1" fill-rule="nonzero"/><path fill="#ffffff" d="M 254.398438 48.910156 C 254.550781 48.753906 254.660156 48.558594 254.710938 48.34375 L 254.722656 48.277344 C 254.828125 47.824219 255.195312 47.472656 255.65625 47.390625 C 255.976562 47.335938 256.257812 47.148438 256.429688 46.871094 L 257.210938 45.644531 C 257.292969 45.515625 257.453125 45.453125 257.601562 45.488281 C 257.867188 45.554688 258.140625 45.453125 258.292969 45.234375 L 258.589844 44.8125 C 258.617188 44.773438 258.644531 44.742188 258.675781 44.710938 L 260.457031 42.941406 C 260.566406 42.832031 260.628906 42.6875 260.628906 42.535156 L 260.628906 42.421875 C 260.628906 42.101562 260.890625 41.839844 261.210938 41.84375 C 261.363281 41.84375 261.507812 41.785156 261.621094 41.675781 L 263.070312 40.238281 C 263.703125 39.605469 263.707031 38.582031 263.074219 37.949219 L 259.167969 34.015625 L 259.046875 33.890625 L 255.140625 29.960938 C 254.511719 29.324219 253.488281 29.320312 252.851562 29.953125 L 251.402344 31.394531 C 251.296875 31.503906 251.234375 31.648438 251.234375 31.800781 C 251.234375 32.121094 250.976562 32.378906 250.652344 32.375 L 250.539062 32.375 C 250.386719 32.375 250.238281 32.433594 250.128906 32.542969 L 248.347656 34.3125 C 248.316406 34.347656 248.28125 34.375 248.246094 34.398438 L 247.824219 34.691406 C 247.601562 34.847656 247.496094 35.121094 247.5625 35.386719 C 247.597656 35.535156 247.535156 35.691406 247.40625 35.773438 L 246.175781 36.550781 C 245.898438 36.722656 245.707031 37.003906 245.652344 37.324219 C 245.566406 37.785156 245.21875 38.148438 244.757812 38.25 L 244.695312 38.261719 C 244.476562 38.3125 244.28125 38.421875 244.125 38.574219 L 240.011719 42.664062 L 250.285156 53 Z M 254.398438 48.910156 " fill-opacity="1" fill-rule="nonzero"/><path fill="#ffffff" d="M 194.539062 119.800781 C 189.542969 119.28125 184.425781 118.867188 179.480469 118.472656 C 169.425781 117.660156 159.09375 116.828125 148.863281 115.042969 C 144.828125 118.90625 142.292969 121.335938 142.292969 121.335938 L 141.308594 122.386719 C 140.375 123.390625 139.925781 124.753906 140.078125 126.117188 C 140.199219 127.167969 140.667969 128.148438 141.414062 128.894531 L 152.382812 139.929688 L 152.503906 140.054688 L 163.46875 151.089844 C 164.214844 151.839844 165.1875 152.316406 166.238281 152.445312 C 167.597656 152.605469 168.964844 152.167969 169.976562 151.234375 L 171.035156 150.261719 C 171.035156 150.261719 185.382812 135.445312 199.9375 120.441406 C 198.195312 120.195312 196.394531 119.992188 194.535156 119.800781 Z M 194.539062 119.800781 " fill-opacity="1" fill-rule="nonzero"/><path fill="#ffffff" d="M 215.296875 72.507812 C 216.273438 76.394531 217.28125 80.414062 218.332031 84.339844 L 218.496094 84.949219 C 219.621094 89.132812 220.785156 93.429688 222.128906 97.613281 C 225.867188 93.773438 228.59375 90.992188 229.632812 89.960938 C 235.128906 84.5 237.054688 76.824219 237.054688 76.824219 C 239.148438 67.777344 243.585938 60.695312 244.785156 58.894531 C 244.972656 58.609375 245.253906 58.390625 245.574219 58.273438 L 245.726562 58.222656 C 246.332031 58 246.796875 57.503906 246.972656 56.882812 L 247.109375 56.417969 C 247.171875 56.1875 247.296875 55.980469 247.464844 55.8125 L 248.59375 54.6875 L 238.320312 44.351562 L 237.191406 45.476562 C 237.023438 45.644531 236.8125 45.765625 236.585938 45.828125 L 236.113281 45.957031 C 235.492188 46.132812 234.992188 46.589844 234.769531 47.199219 L 234.714844 47.347656 C 234.59375 47.671875 234.375 47.945312 234.085938 48.132812 C 232.28125 49.320312 225.179688 53.714844 216.121094 55.753906 C 216.121094 55.753906 214.097656 56.25 211.382812 57.472656 C 212.789062 62.511719 214.054688 67.546875 215.300781 72.511719 Z M 224.949219 58.917969 C 226.519531 57.359375 229.816406 58.140625 232.320312 60.65625 C 234.824219 63.179688 235.582031 66.480469 234.015625 68.039062 C 232.449219 69.597656 229.152344 68.816406 226.648438 66.296875 C 224.148438 63.777344 223.386719 60.472656 224.949219 58.917969 Z M 224.949219 58.917969 " fill-opacity="1" fill-rule="nonzero"/><path fill="#ffffff" d="M 287.035156 115.117188 C 287.058594 115.925781 287.386719 116.589844 287.90625 117.167969 C 288.730469 118.09375 289.78125 118.691406 290.910156 119.148438 C 292.183594 119.660156 293.335938 120.351562 294.316406 121.320312 C 294.964844 121.964844 295.480469 122.703125 295.722656 123.601562 C 296 124.613281 295.847656 125.585938 295.40625 126.527344 C 295.09375 127.1875 294.621094 127.730469 294.152344 128.277344 C 293.355469 129.214844 292.464844 130.050781 291.429688 130.730469 C 291.105469 130.945312 291.109375 130.945312 290.828125 130.691406 C 289.84375 129.816406 288.789062 129.0625 287.515625 128.664062 C 286.632812 128.382812 285.757812 128.355469 284.914062 128.808594 C 284.597656 128.980469 284.546875 129.207031 284.757812 129.492188 C 284.933594 129.726562 284.992188 129.984375 284.835938 130.25 C 284.6875 130.507812 284.457031 130.636719 284.15625 130.601562 C 283.863281 130.574219 283.695312 130.386719 283.628906 130.113281 C 283.574219 129.867188 283.488281 129.601562 283.523438 129.363281 C 283.574219 129.0625 283.679688 128.738281 283.855469 128.492188 C 284.957031 126.949219 286.445312 126.179688 288.371094 126.328125 C 289.546875 126.417969 290.59375 126.867188 291.554688 127.535156 C 291.929688 127.792969 292.3125 128.039062 292.6875 128.300781 C 292.8125 128.386719 292.898438 128.40625 292.992188 128.265625 C 293.195312 127.96875 293.441406 127.695312 293.605469 127.382812 C 293.9375 126.753906 293.878906 126.109375 293.558594 125.484375 C 293.15625 124.703125 292.53125 124.125 291.808594 123.636719 C 290.863281 122.992188 289.808594 122.5625 288.773438 122.101562 C 288.011719 121.757812 287.246094 121.414062 286.601562 120.863281 C 285.710938 120.109375 285.039062 119.203125 284.816406 118.039062 C 284.726562 117.574219 284.742188 117.070312 284.8125 116.597656 C 285.171875 114.113281 286.785156 112.683594 288.957031 111.742188 C 289.277344 111.601562 289.617188 111.507812 289.949219 111.390625 C 290.089844 111.34375 290.195312 111.367188 290.308594 111.464844 C 290.890625 111.949219 291.488281 112.410156 292.191406 112.710938 C 292.636719 112.902344 293.105469 113.042969 293.574219 112.859375 C 293.832031 112.757812 294.050781 112.558594 294.277344 112.390625 C 294.382812 112.3125 294.363281 112.214844 294.25 112.144531 C 294.222656 112.128906 294.199219 112.113281 294.175781 112.097656 C 293.863281 111.882812 293.796875 111.667969 293.945312 111.367188 C 294.089844 111.070312 294.414062 110.917969 294.714844 111.003906 C 294.960938 111.074219 295.113281 111.320312 295.140625 111.660156 C 295.191406 112.300781 294.984375 112.851562 294.578125 113.328125 C 293.800781 114.246094 292.804688 114.769531 291.605469 114.832031 C 290.621094 114.886719 289.730469 114.550781 288.90625 114.035156 C 288.621094 113.855469 288.347656 113.652344 288.082031 113.445312 C 287.953125 113.34375 287.859375 113.347656 287.742188 113.453125 C 287.242188 113.898438 287.058594 114.472656 287.042969 115.109375 M 337.847656 120.726562 C 337.96875 120.84375 338.015625 120.964844 338.015625 121.132812 C 338.011719 123.222656 338.015625 125.316406 338.011719 127.414062 C 338.011719 127.699219 338.070312 128.003906 337.8125 128.234375 C 338.613281 128.996094 339.394531 129.738281 340.183594 130.492188 C 340.832031 129.875 341.460938 129.273438 342.105469 128.660156 C 341.957031 128.5 341.828125 128.363281 341.644531 128.164062 C 341.570312 128.273438 341.523438 128.367188 341.453125 128.441406 C 341.246094 128.660156 341.128906 128.65625 340.925781 128.433594 C 340.78125 128.273438 340.625 128.109375 340.5 127.929688 C 340.425781 127.820312 340.359375 127.671875 340.359375 127.542969 C 340.347656 125.484375 340.351562 123.425781 340.351562 121.371094 C 340.351562 121.070312 340.273438 120.726562 340.394531 120.484375 C 340.519531 120.230469 340.851562 120.085938 341.082031 119.886719 C 341.191406 119.792969 341.261719 119.796875 341.359375 119.898438 C 341.628906 120.179688 341.917969 120.441406 342.179688 120.730469 C 342.253906 120.8125 342.308594 120.945312 342.308594 121.054688 C 342.320312 123.207031 342.320312 125.359375 342.308594 127.511719 C 342.308594 127.675781 342.28125 127.851562 342.226562 128.007812 C 342.179688 128.152344 342.203125 128.234375 342.300781 128.335938 C 342.960938 129.003906 343.613281 129.679688 344.273438 130.351562 C 344.316406 130.398438 344.363281 130.441406 344.421875 130.492188 C 344.476562 130.449219 344.523438 130.414062 344.566406 130.378906 C 345.132812 129.902344 345.699219 129.421875 346.265625 128.941406 C 346.617188 128.640625 346.566406 128.726562 346.292969 128.40625 C 346.164062 128.253906 346.070312 128.253906 345.917969 128.382812 C 345.828125 128.460938 345.617188 128.546875 345.558594 128.5 C 345.277344 128.277344 345.023438 128.007812 344.765625 127.753906 C 344.738281 127.726562 344.75 127.652344 344.75 127.605469 C 344.75 125.273438 344.75 122.945312 344.75 120.621094 C 344.75 120.546875 344.75 120.453125 344.796875 120.414062 C 345.070312 120.167969 345.355469 119.929688 345.644531 119.6875 C 346 120.058594 346.324219 120.40625 346.660156 120.746094 C 346.773438 120.859375 346.8125 120.976562 346.8125 121.132812 C 346.808594 123.226562 346.808594 125.320312 346.8125 127.417969 C 346.8125 127.714844 346.808594 128.003906 346.582031 128.242188 C 347.335938 128.980469 348.074219 129.703125 348.824219 130.414062 C 348.859375 130.449219 348.988281 130.441406 349.03125 130.40625 C 349.417969 130.085938 349.789062 129.757812 350.164062 129.425781 C 350.457031 129.167969 350.746094 128.914062 351.058594 128.636719 C 350.910156 128.503906 350.792969 128.351562 350.640625 128.292969 C 350.570312 128.261719 350.425781 128.402344 350.320312 128.476562 C 350.144531 128.597656 350 128.535156 349.871094 128.410156 C 349.671875 128.214844 349.476562 128.007812 349.265625 127.828125 C 349.132812 127.710938 349.085938 127.585938 349.085938 127.40625 C 349.09375 125.253906 349.085938 123.101562 349.09375 120.949219 C 349.09375 120.773438 349.15625 120.601562 349.199219 120.371094 C 348.4375 119.527344 347.628906 118.628906 346.804688 117.722656 C 345.972656 118.386719 345.152344 119.035156 344.328125 119.691406 C 343.710938 119.019531 343.121094 118.371094 342.519531 117.707031 C 341.695312 118.375 340.890625 119.035156 340.066406 119.707031 C 339.367188 119.015625 338.679688 118.34375 338.019531 117.703125 C 337.320312 118.394531 336.640625 119.074219 335.976562 119.730469 C 336.089844 119.859375 336.214844 120 336.339844 120.140625 C 336.507812 120 336.660156 119.871094 336.839844 119.71875 C 337.1875 120.070312 337.511719 120.410156 337.847656 120.734375 M 320.09375 130.652344 C 320.003906 130.378906 319.878906 130.09375 319.875 129.8125 C 319.859375 126.816406 319.863281 123.824219 319.867188 120.828125 C 319.867188 120.714844 319.882812 120.585938 319.933594 120.484375 C 320 120.359375 319.972656 120.292969 319.871094 120.210938 C 318.878906 119.414062 317.886719 118.605469 316.898438 117.800781 C 316.773438 117.695312 316.6875 117.699219 316.5625 117.804688 C 315.394531 118.726562 314.21875 119.648438 313.046875 120.566406 C 312.996094 120.609375 312.929688 120.628906 312.875 120.65625 C 313.203125 120.878906 313.234375 121.144531 313.234375 121.425781 C 313.234375 123.214844 313.238281 125.007812 313.230469 126.800781 C 313.230469 127.046875 313.15625 127.292969 313.109375 127.59375 C 313.746094 128.105469 314.445312 128.664062 315.15625 129.230469 C 314.828125 129.480469 314.519531 129.695312 314.234375 129.933594 C 313.695312 130.378906 313.167969 130.835938 312.890625 131.507812 C 312.375 132.769531 312.847656 133.867188 314.117188 134.277344 C 314.800781 134.503906 315.488281 134.460938 316.171875 134.273438 C 317.082031 134.019531 317.820312 133.5 318.488281 132.847656 C 319.128906 132.21875 319.652344 131.46875 320.324219 131.039062 C 320.242188 130.90625 320.140625 130.785156 320.09375 130.648438 M 316.460938 120.363281 C 316.734375 120.585938 317.007812 120.804688 317.273438 121.039062 C 317.339844 121.097656 317.394531 121.210938 317.394531 121.292969 C 317.402344 123.3125 317.402344 125.332031 317.410156 127.351562 C 317.410156 127.527344 317.296875 127.589844 317.1875 127.671875 C 316.9375 127.859375 316.691406 127.859375 316.449219 127.671875 C 316.199219 127.480469 315.945312 127.292969 315.707031 127.085938 C 315.636719 127.023438 315.566406 126.90625 315.566406 126.816406 C 315.558594 124.496094 315.5625 122.175781 315.5625 119.855469 C 315.5625 119.808594 315.574219 119.761719 315.585938 119.65625 C 315.902344 119.910156 316.183594 120.136719 316.457031 120.363281 M 317.398438 130.527344 C 317.414062 131.15625 317.640625 131.652344 318.25 131.910156 C 318.289062 131.925781 318.324219 131.957031 318.375 131.996094 C 318.175781 132.292969 317.933594 132.53125 317.640625 132.714844 C 317.066406 133.070312 316.441406 133.199219 315.789062 133.054688 C 315.289062 132.945312 315.007812 132.582031 315.023438 132.066406 C 315.035156 131.738281 315.078125 131.386719 315.203125 131.085938 C 315.625 130.074219 316.417969 129.382812 317.324219 128.746094 C 317.351562 129.371094 317.382812 129.949219 317.398438 130.527344 M 328.558594 121.417969 C 328.558594 123.453125 328.558594 125.488281 328.558594 127.523438 C 328.558594 127.785156 328.574219 128.050781 328.351562 128.273438 C 329.46875 129.015625 330.570312 129.742188 331.671875 130.476562 C 331.75 130.402344 331.816406 130.34375 331.878906 130.28125 C 332.367188 129.800781 332.863281 129.3125 333.351562 128.828125 C 333.484375 128.695312 333.617188 128.699219 333.753906 128.835938 C 334.179688 129.261719 334.601562 129.691406 335.027344 130.117188 C 335.082031 130.171875 335.140625 130.222656 335.183594 130.261719 C 335.84375 129.613281 336.480469 128.988281 337.117188 128.359375 C 337.148438 128.324219 337.164062 128.222656 337.136719 128.195312 C 337.011719 128.046875 336.871094 127.917969 336.691406 127.734375 C 336.546875 127.910156 336.425781 128.058594 336.289062 128.226562 C 335.960938 127.90625 335.660156 127.605469 335.351562 127.316406 C 335.234375 127.207031 335.191406 127.089844 335.191406 126.929688 C 335.199219 124.960938 335.191406 122.992188 335.199219 121.023438 C 335.199219 120.804688 335.246094 120.585938 335.273438 120.324219 C 335.273438 120.324219 335.230469 120.285156 335.1875 120.246094 C 334.207031 119.449219 333.226562 118.660156 332.253906 117.851562 C 332.101562 117.726562 332.007812 117.730469 331.863281 117.847656 C 331.140625 118.425781 330.410156 118.996094 329.683594 119.5625 C 329.199219 119.945312 328.714844 120.328125 328.199219 120.734375 C 328.503906 120.894531 328.554688 121.136719 328.554688 121.421875 M 331.039062 119.78125 C 331.566406 120.210938 332.09375 120.640625 332.617188 121.082031 C 332.679688 121.132812 332.726562 121.238281 332.726562 121.320312 C 332.738281 123.515625 332.738281 125.710938 332.738281 127.90625 C 332.738281 128.046875 332.464844 128.414062 332.335938 128.445312 C 332.296875 128.453125 332.238281 128.429688 332.199219 128.402344 C 331.796875 128.121094 331.394531 127.84375 331 127.546875 C 330.933594 127.5 330.878906 127.382812 330.878906 127.296875 C 330.878906 124.835938 330.882812 122.375 330.890625 119.917969 C 330.890625 119.855469 330.894531 119.792969 330.90625 119.707031 C 330.964844 119.738281 331.007812 119.753906 331.039062 119.78125 M 311.058594 127.332031 C 310.925781 127.210938 310.878906 127.082031 310.878906 126.90625 C 310.886719 124.9375 310.878906 122.96875 310.886719 121 C 310.886719 120.789062 310.9375 120.578125 310.972656 120.320312 C 310.992188 120.34375 310.972656 120.320312 310.953125 120.300781 C 309.929688 119.472656 308.910156 118.644531 307.894531 117.8125 C 307.757812 117.703125 307.679688 117.753906 307.574219 117.835938 C 306.394531 118.765625 305.210938 119.695312 304.027344 120.625 C 303.984375 120.660156 303.957031 120.703125 303.910156 120.75 C 304.199219 120.894531 304.257812 121.132812 304.257812 121.40625 C 304.257812 123.363281 304.257812 125.3125 304.257812 127.269531 C 304.257812 127.613281 304.320312 127.972656 304.046875 128.277344 C 305.164062 129.019531 306.257812 129.742188 307.410156 130.511719 C 307.472656 130.421875 307.515625 130.324219 307.59375 130.253906 C 308.089844 129.757812 308.597656 129.265625 309.089844 128.765625 C 309.203125 128.652344 309.269531 128.65625 309.378906 128.765625 C 309.8125 129.210938 310.257812 129.652344 310.695312 130.09375 C 310.753906 130.152344 310.820312 130.207031 310.851562 130.242188 C 311.519531 129.59375 312.167969 128.96875 312.808594 128.339844 C 312.835938 128.308594 312.847656 128.21875 312.820312 128.191406 C 312.703125 128.03125 312.574219 127.882812 312.417969 127.691406 C 312.238281 127.910156 312.117188 128.058594 311.980469 128.226562 C 311.648438 127.902344 311.355469 127.605469 311.050781 127.324219 M 307.675781 120.558594 C 307.824219 120.675781 307.957031 120.816406 308.121094 120.917969 C 308.375 121.070312 308.425781 121.28125 308.425781 121.5625 C 308.417969 123.644531 308.414062 125.730469 308.433594 127.816406 C 308.433594 128.132812 308.222656 128.257812 308.046875 128.429688 C 308.023438 128.453125 307.933594 128.429688 307.894531 128.40625 C 307.484375 128.121094 307.074219 127.835938 306.675781 127.542969 C 306.617188 127.5 306.570312 127.394531 306.570312 127.320312 C 306.570312 124.832031 306.574219 122.34375 306.582031 119.859375 C 306.582031 119.820312 306.59375 119.777344 306.605469 119.679688 C 306.988281 119.992188 307.332031 120.273438 307.675781 120.554688 M 358.226562 118.84375 C 357.855469 118.859375 357.472656 118.878906 357.113281 118.8125 C 356.523438 118.707031 356.074219 118.324219 355.640625 117.933594 C 355.347656 117.664062 355.34375 117.65625 355.003906 117.839844 C 354.074219 118.347656 353.277344 119.007812 352.660156 119.875 C 352.34375 120.316406 352.097656 120.796875 352.027344 121.335938 C 351.863281 122.546875 352.339844 123.511719 353.277344 124.242188 C 354.097656 124.878906 355.0625 125.242188 356.039062 125.570312 C 356.796875 125.824219 357.429688 126.253906 357.890625 126.914062 C 358.097656 127.207031 358.125 127.523438 357.921875 127.820312 C 357.738281 128.082031 357.523438 128.320312 357.3125 128.566406 C 357.207031 128.6875 357.105469 128.683594 356.953125 128.582031 C 356.484375 128.273438 356.015625 127.953125 355.511719 127.707031 C 354.695312 127.308594 353.824219 127.128906 352.933594 127.433594 C 352.140625 127.707031 351.503906 128.179688 351.265625 129.042969 C 351.148438 129.464844 351.269531 129.828125 351.585938 130.007812 C 351.90625 130.183594 352.253906 130.035156 352.34375 129.683594 C 352.410156 129.425781 352.296875 129.199219 352 128.996094 C 352.050781 128.726562 352.160156 128.609375 352.421875 128.628906 C 352.703125 128.652344 352.992188 128.691406 353.261719 128.777344 C 354.207031 129.074219 355.011719 129.621094 355.765625 130.25 C 355.902344 130.367188 355.988281 130.363281 356.121094 130.25 C 356.320312 130.078125 356.542969 129.929688 356.746094 129.765625 C 357.445312 129.199219 358.164062 128.660156 358.710938 127.941406 C 359.246094 127.246094 359.519531 126.449219 359.410156 125.558594 C 359.304688 124.695312 358.835938 124.039062 358.132812 123.59375 C 357.445312 123.160156 356.699219 122.828125 355.976562 122.457031 C 355.253906 122.082031 354.507812 121.753906 353.808594 121.339844 C 353.105469 120.921875 353.074219 120.070312 353.664062 119.503906 C 353.816406 119.359375 353.910156 119.351562 354.074219 119.503906 C 355.210938 120.546875 356.710938 120.707031 358.035156 119.929688 C 358.503906 119.65625 358.929688 119.332031 359.113281 118.789062 C 359.257812 118.371094 359.125 117.914062 358.804688 117.703125 C 358.558594 117.546875 358.292969 117.609375 358.148438 117.867188 C 358.011719 118.117188 358.089844 118.359375 358.355469 118.488281 C 358.390625 118.507812 358.433594 118.523438 358.542969 118.578125 C 358.410156 118.691406 358.320312 118.835938 358.222656 118.84375 M 299.390625 126.757812 C 299.339844 126.71875 299.328125 126.617188 299.328125 126.539062 C 299.320312 126.0625 299.335938 125.585938 299.316406 125.105469 C 299.3125 124.914062 299.375 124.800781 299.527344 124.6875 C 300.753906 123.78125 301.976562 122.863281 303.199219 121.949219 C 303.269531 121.890625 303.34375 121.832031 303.40625 121.777344 C 303.394531 121.742188 303.394531 121.722656 303.386719 121.714844 C 302.417969 120.414062 301.441406 119.113281 300.480469 117.808594 C 300.386719 117.683594 300.320312 117.730469 300.230469 117.800781 C 299.042969 118.738281 297.855469 119.671875 296.667969 120.605469 C 296.628906 120.632812 296.605469 120.675781 296.5625 120.726562 C 296.851562 120.886719 296.894531 121.144531 296.894531 121.425781 C 296.890625 123.242188 296.894531 125.054688 296.894531 126.871094 C 296.894531 127.148438 296.910156 127.429688 296.691406 127.652344 C 296.738281 127.695312 296.769531 127.730469 296.800781 127.757812 C 297.894531 128.621094 298.988281 129.488281 300.078125 130.359375 C 300.199219 130.457031 300.265625 130.410156 300.355469 130.328125 C 301.296875 129.464844 302.242188 128.601562 303.183594 127.738281 C 303.222656 127.703125 303.253906 127.652344 303.308594 127.59375 C 303.179688 127.472656 303.054688 127.359375 302.925781 127.234375 C 302.445312 127.648438 301.96875 128.050781 301.488281 128.464844 C 300.777344 127.886719 300.082031 127.332031 299.390625 126.761719 M 299.335938 124 L 299.335938 119.78125 C 299.335938 119.78125 299.359375 119.761719 299.371094 119.753906 C 300.015625 120.640625 300.660156 121.523438 301.316406 122.425781 C 300.65625 122.949219 300.011719 123.464844 299.335938 124 M 324.347656 127.75 C 324.304688 127.707031 324.296875 127.613281 324.296875 127.546875 C 324.296875 125.0625 324.292969 122.585938 324.300781 120.101562 C 324.300781 120.015625 324.351562 119.902344 324.417969 119.84375 C 324.636719 119.632812 324.867188 119.445312 325.097656 119.25 C 325.363281 119.023438 325.433594 119.027344 325.664062 119.289062 C 325.738281 119.378906 325.820312 119.476562 325.847656 119.582031 C 325.941406 119.929688 326.066406 120.273438 326.078125 120.625 C 326.101562 121.300781 326.054688 121.980469 326.035156 122.652344 C 326.023438 122.65625 326.054688 122.652344 326.074219 122.632812 C 326.628906 122.203125 327.132812 121.726562 327.488281 121.109375 C 327.84375 120.503906 327.953125 119.867188 327.699219 119.191406 C 327.417969 118.433594 326.847656 117.925781 326.183594 117.507812 C 326.128906 117.472656 325.988281 117.511719 325.925781 117.566406 C 325.328125 118.066406 324.738281 118.574219 324.144531 119.078125 C 324.058594 119.152344 323.964844 119.222656 323.871094 119.296875 C 323.375 118.746094 322.894531 118.21875 322.410156 117.675781 C 321.738281 118.257812 321.09375 118.8125 320.453125 119.371094 C 320.226562 119.570312 320.234375 119.566406 320.410156 119.804688 C 320.5 119.929688 320.582031 119.921875 320.703125 119.859375 C 320.914062 119.75 321.132812 119.617188 321.363281 119.792969 C 321.664062 120.015625 321.890625 120.292969 321.890625 120.703125 C 321.890625 123.007812 321.890625 125.3125 321.886719 127.621094 C 321.886719 127.820312 321.824219 128.023438 321.78125 128.28125 C 322.605469 128.988281 323.488281 129.742188 324.347656 130.484375 C 325.074219 129.757812 325.78125 129.050781 326.558594 128.277344 C 326.464844 128.21875 326.347656 128.164062 326.265625 128.074219 C 326.144531 127.953125 326.0625 127.941406 325.945312 128.074219 C 325.757812 128.289062 325.554688 128.492188 325.34375 128.710938 C 324.988281 128.371094 324.660156 128.070312 324.339844 127.753906 M 351.953125 118.308594 C 352.074219 118.15625 352.148438 117.945312 352.191406 117.753906 C 352.257812 117.453125 352.21875 117.175781 351.941406 116.96875 C 351.75 116.820312 351.585938 116.640625 351.410156 116.46875 C 351.082031 116.15625 351.082031 116.085938 351.378906 115.753906 C 351.648438 115.453125 351.644531 115.457031 351.359375 115.167969 C 351.265625 115.066406 351.207031 115.078125 351.113281 115.175781 C 350.699219 115.640625 350.273438 116.09375 349.859375 116.5625 C 349.59375 116.863281 349.527344 117.429688 349.734375 117.714844 C 349.941406 117.996094 350.175781 118.261719 350.414062 118.515625 C 350.609375 118.726562 350.644531 118.917969 350.496094 119.167969 C 350.429688 119.277344 350.363281 119.390625 350.285156 119.515625 C 350.414062 119.617188 350.535156 119.710938 350.667969 119.8125 C 351.105469 119.304688 351.542969 118.820312 351.953125 118.3125 " fill-opacity="1" fill-rule="nonzero"/><path fill="#ffffff" d="M 393.984375 126.128906 L 391.46875 130.351562 L 391.921875 130.351562 L 394.429688 126.128906 Z M 393.984375 126.128906 " fill-opacity="1" fill-rule="nonzero"/><path fill="#ffffff" d="M 394.695312 128.210938 C 394.007812 128.210938 393.453125 128.726562 393.453125 129.320312 C 393.453125 129.914062 394.007812 130.4375 394.695312 130.4375 C 395.382812 130.4375 395.964844 129.941406 395.964844 129.320312 C 395.964844 128.699219 395.390625 128.210938 394.695312 128.210938 Z M 394.695312 130.015625 C 394.277344 130.015625 393.941406 129.703125 393.941406 129.324219 C 393.941406 128.945312 394.277344 128.640625 394.695312 128.640625 C 395.113281 128.640625 395.472656 128.949219 395.472656 129.324219 C 395.472656 129.695312 395.117188 130.015625 394.695312 130.015625 Z M 394.695312 130.015625 " fill-opacity="1" fill-rule="nonzero"/><path fill="#ffffff" d="M 392.4375 127.179688 C 392.4375 126.570312 391.863281 126.066406 391.175781 126.066406 C 390.492188 126.066406 389.925781 126.574219 389.925781 127.179688 C 389.925781 127.785156 390.476562 128.296875 391.175781 128.296875 C 391.878906 128.296875 392.4375 127.792969 392.4375 127.179688 Z M 391.175781 127.863281 C 390.753906 127.863281 390.421875 127.550781 390.421875 127.179688 C 390.421875 126.804688 390.753906 126.5 391.175781 126.5 C 391.601562 126.5 391.953125 126.804688 391.953125 127.179688 C 391.953125 127.550781 391.601562 127.863281 391.175781 127.863281 Z M 391.175781 127.863281 " fill-opacity="1" fill-rule="nonzero"/><path fill="#ffffff" d="M 369.769531 116.304688 C 369.238281 116.679688 368.945312 116.875 368.890625 116.890625 C 366.21875 119.019531 364.882812 121.296875 364.882812 123.726562 L 364.882812 123.949219 C 364.882812 125.667969 365.386719 127.101562 366.390625 128.246094 C 367.601562 129.503906 368.65625 130.238281 369.550781 130.449219 L 369.878906 130.449219 C 370.039062 130.449219 370.554688 130.132812 371.421875 129.492188 C 373.578125 127.4375 374.65625 125.367188 374.65625 123.285156 L 374.65625 122.65625 C 374.65625 121.421875 374.289062 120.222656 373.554688 119.058594 C 372.527344 117.660156 371.261719 116.742188 369.769531 116.300781 Z M 369.679688 129.472656 L 369.644531 129.472656 C 369.148438 129.324219 368.324219 128.867188 367.078125 127.585938 C 366.296875 126.6875 365.890625 125.601562 365.835938 124.265625 C 366.246094 125.941406 367.414062 127.410156 369.316406 128.632812 L 369.410156 128.6875 C 369.738281 128.851562 370.027344 128.984375 370.28125 129.085938 C 369.949219 129.316406 369.769531 129.425781 369.679688 129.472656 Z M 372.671875 126.082031 C 372.542969 126.851562 372.152344 127.625 371.496094 128.394531 C 371.207031 128.394531 370.671875 128.199219 369.878906 127.804688 C 367.746094 126.433594 366.683594 124.78125 366.683594 122.84375 L 366.683594 122.40625 C 366.683594 121.105469 367.132812 119.796875 368.042969 118.472656 C 368.070312 118.472656 368.214844 118.496094 368.484375 118.546875 C 371.398438 119.632812 372.855469 121.636719 372.855469 124.574219 C 372.855469 125.226562 372.792969 125.730469 372.671875 126.082031 Z M 373.640625 122.902344 C 373.167969 120.585938 371.683594 118.855469 369.265625 117.820312 C 369.308594 117.785156 369.351562 117.757812 369.390625 117.722656 C 369.492188 117.660156 369.640625 117.566406 369.886719 117.394531 C 370.980469 117.808594 371.90625 118.539062 372.703125 119.617188 C 373.332031 120.621094 373.636719 121.617188 373.636719 122.664062 L 373.636719 122.902344 Z M 373.640625 122.902344 " fill-opacity="1" fill-rule="nonzero"/><path fill="#ffffff" d="M 383.21875 116.304688 C 382.6875 116.679688 382.394531 116.875 382.335938 116.890625 C 379.667969 119.019531 378.332031 121.296875 378.332031 123.726562 L 378.332031 123.949219 C 378.332031 125.667969 378.832031 127.101562 379.839844 128.246094 C 381.050781 129.503906 382.105469 130.238281 382.996094 130.449219 L 383.328125 130.449219 C 383.488281 130.449219 384.003906 130.132812 384.871094 129.492188 C 387.023438 127.4375 388.101562 125.367188 388.101562 123.285156 L 388.101562 122.65625 C 388.101562 121.421875 387.738281 120.222656 387.003906 119.058594 C 385.976562 117.660156 384.710938 116.742188 383.21875 116.300781 Z M 386.121094 126.082031 C 385.996094 126.851562 385.601562 127.625 384.945312 128.394531 C 384.9375 128.394531 384.925781 128.394531 384.914062 128.394531 C 384.714844 128.820312 384.304688 129.136719 383.691406 129.136719 C 383.679688 129.136719 383.667969 129.136719 383.65625 129.136719 C 383.375 129.332031 383.214844 129.429688 383.128906 129.476562 L 383.09375 129.476562 C 382.597656 129.328125 381.773438 128.871094 380.527344 127.589844 C 379.746094 126.691406 379.339844 125.601562 379.285156 124.265625 C 379.679688 125.867188 380.753906 127.273438 382.5 128.460938 C 382.285156 128.066406 382.261719 127.570312 382.421875 127.148438 C 380.894531 125.917969 380.132812 124.484375 380.132812 122.847656 L 380.132812 122.40625 C 380.132812 121.109375 380.582031 119.800781 381.492188 118.476562 C 381.519531 118.476562 381.664062 118.5 381.933594 118.550781 C 384.847656 119.632812 386.304688 121.640625 386.304688 124.578125 C 386.304688 125.230469 386.246094 125.734375 386.121094 126.082031 Z M 387.089844 122.902344 C 386.621094 120.585938 385.136719 118.855469 382.71875 117.820312 C 382.757812 117.785156 382.800781 117.757812 382.839844 117.722656 C 382.945312 117.660156 383.089844 117.566406 383.339844 117.394531 C 384.433594 117.808594 385.355469 118.539062 386.15625 119.617188 C 386.78125 120.621094 387.089844 121.617188 387.089844 122.664062 Z M 387.089844 122.902344 " fill-opacity="1" fill-rule="nonzero"/><path fill="#ffffff" d="M 375.054688 128.757812 C 375.054688 128.878906 375.242188 129.113281 375.617188 129.46875 C 375.863281 129.800781 375.992188 130.058594 375.992188 130.253906 L 375.992188 130.328125 C 375.992188 130.621094 375.9375 130.832031 375.84375 130.960938 C 375.390625 131.457031 375.171875 131.753906 375.171875 131.859375 C 375.171875 131.859375 375.148438 132 375.242188 132.070312 C 375.277344 132.09375 375.351562 132.136719 375.390625 132.144531 C 375.570312 132.183594 375.894531 131.972656 376.363281 131.675781 C 377.214844 131.015625 377.824219 130.015625 378.191406 128.683594 L 378.191406 128.648438 C 377.359375 127.832031 376.796875 127.371094 376.511719 127.265625 C 376.480469 127.265625 375.992188 127.761719 375.054688 128.757812 Z M 375.054688 128.757812 " fill-opacity="1" fill-rule="nonzero"/><path fill="#ffffff" d="M 273.902344 125.6875 C 273.902344 126.488281 273.597656 127.109375 272.992188 127.550781 C 272.394531 127.992188 271.558594 128.210938 270.484375 128.210938 L 266.054688 128.210938 L 266.054688 119.359375 L 270.105469 119.359375 C 271.1875 119.359375 272.003906 119.546875 272.558594 119.921875 C 273.117188 120.292969 273.394531 120.847656 273.394531 121.582031 C 273.394531 122.082031 273.253906 122.507812 272.972656 122.855469 C 272.695312 123.199219 272.273438 123.429688 271.707031 123.554688 C 272.421875 123.636719 272.964844 123.859375 273.335938 124.226562 C 273.710938 124.59375 273.902344 125.082031 273.902344 125.6875 Z M 271.527344 121.832031 C 271.527344 121.429688 271.402344 121.148438 271.148438 120.980469 C 270.894531 120.816406 270.519531 120.730469 270.019531 120.730469 L 267.914062 120.730469 L 267.914062 122.925781 L 270.035156 122.925781 C 270.558594 122.925781 270.9375 122.835938 271.171875 122.652344 C 271.410156 122.46875 271.527344 122.195312 271.527344 121.832031 Z M 272.042969 125.535156 C 272.042969 124.707031 271.445312 124.292969 270.257812 124.292969 L 267.914062 124.292969 L 267.914062 126.835938 L 270.328125 126.835938 C 270.921875 126.835938 271.355469 126.730469 271.628906 126.515625 C 271.902344 126.296875 272.042969 125.96875 272.042969 125.535156 Z M 272.042969 125.535156 " fill-opacity="1" fill-rule="nonzero"/><path fill="#ffffff" d="M 276.265625 130.882812 C 275.839844 130.882812 275.46875 130.855469 275.152344 130.796875 L 275.152344 129.539062 C 275.375 129.570312 275.578125 129.589844 275.757812 129.589844 C 276.011719 129.589844 276.21875 129.546875 276.386719 129.46875 C 276.554688 129.390625 276.703125 129.261719 276.832031 129.074219 C 276.960938 128.894531 277.109375 128.582031 277.273438 128.136719 L 274.585938 121.410156 L 276.453125 121.410156 L 277.523438 124.597656 C 277.691406 125.054688 277.898438 125.75 278.152344 126.695312 L 278.308594 126.101562 L 278.71875 124.621094 L 279.726562 121.410156 L 281.570312 121.410156 L 278.882812 128.566406 C 278.523438 129.441406 278.148438 130.042969 277.757812 130.375 C 277.375 130.714844 276.875 130.882812 276.265625 130.882812 Z M 276.265625 130.882812 " fill-opacity="1" fill-rule="nonzero"/></svg>